<svg width="24" height="24" viewBox="0 0 24 24" fill="none" xmlns="http://www.w3.org/2000/svg">
<path fill-rule="evenodd" clip-rule="evenodd" d="M14.9056 16.3199C13.551 17.3729 11.8487 18 10 18C5.58172 18 2 14.4183 2 10C2 5.58172 5.58172 2 10 2C14.4183 2 18 5.58172 18 10C18 11.8487 17.3729 13.551 16.3199 14.9056L20.7071 19.2929C21.0976 19.6834 21.0976 20.3166 20.7071 20.7071C20.3166 21.0976 19.6834 21.0976 19.2929 20.7071L14.9056 16.3199ZM9 7C9 6.44772 9.44772 6 10 6C12.2091 6 14 7.79086 14 10C14 10.5523 13.5523 11 13 11C12.4477 11 12 10.5523 12 10C12 8.89543 11.1046 8 10 8C9.44772 8 9 7.55228 9 7Z" fill="white"/>
</svg>
