<svg width="1218" height="1024" viewBox="0 0 1218 1024" fill="none" xmlns="http://www.w3.org/2000/svg">
<mask id="mask0_215_753" style="mask-type:alpha" maskUnits="userSpaceOnUse" x="-542" y="-172" width="2403" height="1832">
<path d="M-540.764 -170.764V1659M-490.75 -170.764V1659M-440.736 -170.764V1659M-390.722 -170.764V1659M-340.707 -170.764V1659M-290.693 -170.764V1659M-240.679 -170.764V1659M-190.665 -170.764V1659M-140.651 -170.764V1659M-90.6365 -170.764V1659M-40.6223 -170.764V1659M9.39191 -170.764V1659M59.4061 -170.764V1659M109.42 -170.764V1659M159.434 -170.764V1659M209.449 -170.764V1659M259.463 -170.764V1659M309.477 -170.764V1659M359.491 -170.764V1659M409.505 -170.764V1659M459.52 -170.764V1659M509.534 -170.764V1659M559.548 -170.764V1659M609.562 -170.764V1659M659.576 -170.764V1659M709.59 -170.764V1659M759.605 -170.764V1659M809.619 -170.764V1659M859.633 -170.764V1659M909.647 -170.764V1659M959.661 -170.764V1659M1009.68 -170.764V1659M1059.69 -170.764V1659M1109.7 -170.764V1659M1159.72 -170.764V1659M1209.73 -170.764V1659M1259.75 -170.764V1659M1309.76 -170.764V1659M1359.77 -170.764V1659M1409.79 -170.764V1659M1459.8 -170.764V1659M1509.82 -170.764V1659M1559.83 -170.764V1659M1609.85 -170.764V1659M1659.86 -170.764V1659M1709.87 -170.764V1659M1759.89 -170.764V1659M1809.9 -170.764V1659M1859.92 -170.764V1659M-541 1658.76H1859.68M-541 1607.94H1859.68M-541 1557.11H1859.68M-541 1506.28H1859.68M-541 1455.46H1859.68M-541 1404.63H1859.68M-541 1353.8H1859.68M-541 1302.98H1859.68M-541 1252.15H1859.68M-541 1201.32H1859.68M-541 1150.5H1859.68M-541 1099.67H1859.68M-541 1048.84H1859.68M-541 998.016H1859.68M-541 947.189H1859.68M-541 896.362H1859.68M-541 845.536H1859.68M-541 794.709H1859.68M-541 743.882H1859.68M-541 693.055H1859.68M-541 642.228H1859.68M-541 591.402H1859.68M-541 540.575H1859.68M-541 489.748H1859.68M-541 438.921H1859.68M-541 388.095H1859.68M-541 337.268H1859.68M-541 286.441H1859.68M-541 235.614H1859.68M-541 184.788H1859.68M-541 133.961H1859.68M-541 83.134H1859.68M-541 32.307H1859.68M-541 -18.5199H1859.68M-541 -69.3465H1859.68M-541 -120.173H1859.68M-541 -171H1859.68" stroke="white" stroke-opacity="0.47" stroke-width="1.4155"/>
</mask>
<g mask="url(#mask0_215_753)">
<g filter="url(#filter0_f_215_753)">
<circle cx="609" cy="476" r="159" fill="#393D9A"/>
</g>
</g>
<g opacity="0.4" filter="url(#filter1_f_215_753)">
<ellipse cx="599" cy="504" rx="232" ry="211" fill="#363894"/>
</g>
<defs>
<filter id="filter0_f_215_753" x="0" y="-133" width="1218" height="1218" filterUnits="userSpaceOnUse" color-interpolation-filters="sRGB">
<feFlood flood-opacity="0" result="BackgroundImageFix"/>
<feBlend mode="normal" in="SourceGraphic" in2="BackgroundImageFix" result="shape"/>
<feGaussianBlur stdDeviation="225" result="effect1_foregroundBlur_215_753"/>
</filter>
<filter id="filter1_f_215_753" x="167" y="93" width="864" height="822" filterUnits="userSpaceOnUse" color-interpolation-filters="sRGB">
<feFlood flood-opacity="0" result="BackgroundImageFix"/>
<feBlend mode="normal" in="SourceGraphic" in2="BackgroundImageFix" result="shape"/>
<feGaussianBlur stdDeviation="100" result="effect1_foregroundBlur_215_753"/>
</filter>
</defs>
</svg>
