<svg width="184" height="232" viewBox="0 0 184 232" fill="none" xmlns="http://www.w3.org/2000/svg">
<g filter="url(#filter0_n_265_4294)">
<g filter="url(#filter1_f_265_4294)">
<path d="M95.0713 -84.9583C104.22 -86.5269 111.936 -78.1256 109.596 -69.1431L82.5776 34.5717C82.2438 35.8534 82.1112 37.1793 82.1846 38.5017L85.4728 97.6836C85.9292 105.899 78.6158 112.398 70.5113 110.979L7.65508 99.9751C2.7681 99.1196 -2.17234 101.17 -5.01702 105.235L-38.2739 152.755C-44.0817 161.054 -56.7753 159.618 -60.5831 150.232L-81.8476 97.8156C-83.216 94.4424 -85.9582 91.813 -89.3858 90.5874L-164.527 63.718C-171.261 61.3099 -174.708 53.8439 -172.173 47.1566L-149.997 -11.3356C-149.188 -13.4683 -148.965 -15.7786 -149.351 -18.0266L-159.391 -76.5285C-160.575 -83.4293 -155.985 -89.998 -149.098 -91.2587L-71.309 -105.498C-69.979 -105.741 -68.6961 -106.194 -67.5082 -106.84L-13.6934 -136.087C-6.72224 -139.876 1.98037 -136.462 4.51588 -128.943L19.9959 -83.0427C22.007 -77.0795 28.0604 -73.4685 34.263 -74.532L95.0713 -84.9583Z" fill="#4830FF"/>
</g>
<g filter="url(#filter2_f_265_4294)">
<path d="M5.04696 -86.5149C11.0078 -91.7532 20.0156 -88.7764 22.3941 -80.7822L44.4341 -6.70692C44.7647 -5.59581 45.243 -4.54171 45.8539 -3.57831L67.6212 30.7524C71.7892 37.326 69.014 46.3395 62.0772 48.7592L31.8541 59.3015C25.7707 61.4235 22.7159 68.7673 25.2413 75.1991L31.6886 91.6197C34.7154 99.3289 29.7158 107.856 22.0387 108.078L-43.6578 109.979C-46.4347 110.06 -49.1472 108.989 -51.2451 106.983L-80.1042 79.3978C-80.6827 78.8448 -81.3124 78.3588 -81.983 77.9477L-113.537 58.602C-117.025 56.463 -119.188 52.4438 -119.182 48.1108L-119.081 -25.4319C-119.075 -29.7443 -116.921 -33.6902 -113.453 -35.7444L-97.283 -45.3206C-95.5641 -46.3385 -94.1343 -47.8441 -93.1441 -49.6788L-75.5689 -82.2408C-72.113 -88.6436 -64.1161 -89.9868 -58.9354 -85.0348L-36.0669 -63.1754C-32.0402 -59.3263 -26.078 -59.163 -21.9522 -62.7886L5.04696 -86.5149Z" fill="#A17EEB"/>
</g>
<g filter="url(#filter3_f_265_4294)">
<path d="M-34.8396 -74.3092C-32.7524 -81.1856 -23.0796 -81.4239 -19.9944 -74.675L-4.47595 -40.7274C-2.56313 -36.543 2.40817 -34.6318 6.43395 -36.533L13.5763 -39.9061C19.7263 -42.8105 26.7638 -36.8654 24.9485 -30.2991L16.6045 -0.117204C15.9519 2.2435 16.4676 4.8255 17.9974 6.85675L38.6818 34.3208C42.3883 39.2421 39.6201 46.0628 33.6482 46.7232L6.23455 49.7546L-15.0548 50.5685C-17.5799 50.6651 -19.8497 51.9552 -21.1665 54.0423L-65.4297 124.198C-69.6814 130.937 -80.4498 127.236 -80.1809 119.129L-77.0071 23.4545C-76.9875 22.8626 -76.9007 22.278 -76.7483 21.7117L-73.5442 9.80397C-73.059 8.00078 -73.249 6.05316 -74.0797 4.31418L-89.9638 -28.9362C-93.2771 -35.872 -86.0638 -42.625 -79.2674 -38.9501L-58.7951 -27.8807C-54.3711 -25.4887 -49.0359 -27.5398 -47.6294 -32.1733L-34.8396 -74.3092Z" fill="white" fill-opacity="0.3"/>
</g>
</g>
<defs>
<filter id="filter0_n_265_4294" x="-223" y="-181" width="401.877" height="386.63" filterUnits="userSpaceOnUse" color-interpolation-filters="sRGB">
<feFlood flood-opacity="0" result="BackgroundImageFix"/>
<feBlend mode="normal" in="SourceGraphic" in2="BackgroundImageFix" result="shape"/>
<feTurbulence type="fractalNoise" baseFrequency="1.6666666269302368 1.6666666269302368" stitchTiles="stitch" numOctaves="3" result="noise" seed="5088" />
<feColorMatrix in="noise" type="luminanceToAlpha" result="alphaNoise" />
<feComponentTransfer in="alphaNoise" result="coloredNoise1">
<feFuncA type="discrete" tableValues="1 1 1 1 1 1 1 1 1 1 1 1 1 1 1 1 1 1 1 1 1 1 1 1 1 1 1 1 1 1 1 1 1 1 1 1 1 1 1 1 1 1 1 1 1 1 1 1 1 1 1 0 0 0 0 0 0 0 0 0 0 0 0 0 0 0 0 0 0 0 0 0 0 0 0 0 0 0 0 0 0 0 0 0 0 0 0 0 0 0 0 0 0 0 0 0 0 0 0 0 "/>
</feComponentTransfer>
<feComposite operator="in" in2="shape" in="coloredNoise1" result="noise1Clipped" />
<feFlood flood-color="rgba(0, 0, 0, 0.15)" result="color1Flood" />
<feComposite operator="in" in2="noise1Clipped" in="color1Flood" result="color1" />
<feMerge result="effect1_noise_265_4294">
<feMergeNode in="shape" />
<feMergeNode in="color1" />
</feMerge>
</filter>
<filter id="filter1_f_265_4294" x="-246.775" y="-211.412" width="430.563" height="443.389" filterUnits="userSpaceOnUse" color-interpolation-filters="sRGB">
<feFlood flood-opacity="0" result="BackgroundImageFix"/>
<feBlend mode="normal" in="SourceGraphic" in2="BackgroundImageFix" result="shape"/>
<feGaussianBlur stdDeviation="36.8844" result="effect1_foregroundBlur_265_4294"/>
</filter>
<filter id="filter2_f_265_4294" x="-169.963" y="-139.916" width="290.324" height="300.68" filterUnits="userSpaceOnUse" color-interpolation-filters="sRGB">
<feFlood flood-opacity="0" result="BackgroundImageFix"/>
<feBlend mode="normal" in="SourceGraphic" in2="BackgroundImageFix" result="shape"/>
<feGaussianBlur stdDeviation="25.3904" result="effect1_foregroundBlur_265_4294"/>
</filter>
<filter id="filter3_f_265_4294" x="-141.906" y="-130.716" width="233.377" height="309.525" filterUnits="userSpaceOnUse" color-interpolation-filters="sRGB">
<feFlood flood-opacity="0" result="BackgroundImageFix"/>
<feBlend mode="normal" in="SourceGraphic" in2="BackgroundImageFix" result="shape"/>
<feGaussianBlur stdDeviation="25.5556" result="effect1_foregroundBlur_265_4294"/>
</filter>
</defs>
</svg>
