<svg width="83" height="66" viewBox="0 0 83 66" fill="none" xmlns="http://www.w3.org/2000/svg">
<path fill-rule="evenodd" clip-rule="evenodd" d="M0.5 8.16667C0.5 3.65634 4.15634 0 8.66667 0H32.8412C35.5927 0 38.1593 1.38556 39.6689 3.68597L42.9977 8.75847C44.5074 11.0589 47.0739 12.4444 49.8255 12.4444H74C78.5103 12.4444 82.1667 16.1008 82.1667 20.6111V57.1667C82.1667 61.677 78.5103 65.3333 74 65.3333H8.66667C4.15634 65.3333 0.5 61.677 0.5 57.1667V8.16667ZM41.3333 24.5C43.5885 24.5 45.4167 26.3282 45.4167 28.5833V32.6667H49.5C51.7552 32.6667 53.5833 34.4948 53.5833 36.75C53.5833 39.0052 51.7552 40.8333 49.5 40.8333H45.4167V44.9167C45.4167 47.1718 43.5885 49 41.3333 49C39.0782 49 37.25 47.1718 37.25 44.9167V40.8333H33.1667C30.9115 40.8333 29.0833 39.0052 29.0833 36.75C29.0833 34.4948 30.9115 32.6667 33.1667 32.6667H37.25V28.5833C37.25 26.3282 39.0782 24.5 41.3333 24.5Z" fill="#A3A3A3"/>
</svg>
