<svg width="934" height="665" viewBox="0 0 934 665" fill="none" xmlns="http://www.w3.org/2000/svg">
<g opacity="0.63">
<g filter="url(#filter0_f_194_1239)">
<path d="M174.313 34.0982C388.774 220.566 742.208 506.228 757.343 488.011C772.479 469.794 468.838 171.588 254.378 -14.8802C39.9174 -201.348 -191.478 -309.504 -206.614 -291.287C-221.749 -273.07 -40.1473 -152.37 174.313 34.0982Z" fill="#4125DD"/>
</g>
<g filter="url(#filter1_f_194_1239)">
<path d="M364.861 159.53C536.738 311.12 816.122 548.226 822.635 540.485C829.148 532.744 579.675 298.019 407.797 146.429C235.919 -5.16131 67.1245 -114.047 60.6115 -106.306C54.0984 -98.5648 192.983 7.93933 364.861 159.53Z" fill="#5617DB"/>
<path d="M60.9864 -105.975C60.914 -105.889 60.8482 -105.726 60.9094 -105.382C60.9717 -105.031 61.1565 -104.561 61.4948 -103.962C62.1689 -102.768 63.3819 -101.185 65.1306 -99.2179C68.6217 -95.29 74.1673 -89.917 81.5601 -83.198C96.3417 -69.7638 118.455 -50.9942 146.152 -27.7219C201.542 18.8187 279.238 83.3471 365.183 159.147C451.119 234.94 563.931 332.111 656.072 409.366C702.143 447.994 743.043 481.64 772.831 505.145C787.726 516.898 799.837 526.11 808.424 532.14C812.719 535.157 816.121 537.368 818.543 538.703C819.757 539.373 820.702 539.809 821.379 540.021C821.72 540.127 821.964 540.167 822.124 540.165C822.198 540.164 822.239 540.154 822.259 540.148C822.264 540.127 822.27 540.084 822.262 540.005C822.248 539.849 822.186 539.619 822.052 539.304C821.787 538.677 821.285 537.823 820.535 536.741C819.041 534.584 816.626 531.61 813.362 527.886C806.838 520.442 796.965 510.054 784.388 497.325C759.236 471.868 723.296 437.069 681.778 397.771C598.743 319.177 493.409 222.603 407.475 146.812C321.552 71.03 236.398 5.92241 171.914 -39.2706C139.672 -61.8675 112.602 -79.4824 93.1908 -90.9618C83.4831 -96.7026 75.7011 -100.902 70.1505 -103.424C67.3724 -104.686 65.1732 -105.519 63.5802 -105.917C62.7815 -106.117 62.1612 -106.201 61.7097 -106.187C61.2435 -106.172 61.055 -106.057 60.9864 -105.975Z" stroke="black"/>
</g>
</g>
<defs>
<filter id="filter0_f_194_1239" x="-383.496" y="-469.274" width="1317.38" height="1134.12" filterUnits="userSpaceOnUse" color-interpolation-filters="sRGB">
<feFlood flood-opacity="0" result="BackgroundImageFix"/>
<feBlend mode="normal" in="SourceGraphic" in2="BackgroundImageFix" result="shape"/>
<feGaussianBlur stdDeviation="88" result="effect1_foregroundBlur_194_1239"/>
</filter>
<filter id="filter1_f_194_1239" x="-35.6084" y="-202.694" width="954.368" height="839.364" filterUnits="userSpaceOnUse" color-interpolation-filters="sRGB">
<feFlood flood-opacity="0" result="BackgroundImageFix"/>
<feBlend mode="normal" in="SourceGraphic" in2="BackgroundImageFix" result="shape"/>
<feGaussianBlur stdDeviation="48" result="effect1_foregroundBlur_194_1239"/>
</filter>
</defs>
</svg>
