<svg width="20" height="20" viewBox="0 0 20 20" fill="none" xmlns="http://www.w3.org/2000/svg">
<path fill-rule="evenodd" clip-rule="evenodd" d="M18.6667 10.3333C18.6667 14.9357 14.9357 18.6667 10.3333 18.6667C5.73096 18.6667 2 14.9357 2 10.3333C2 5.73096 5.73096 2 10.3333 2C14.9357 2 18.6667 5.73096 18.6667 10.3333ZM13.6919 7.80806C13.936 8.05214 13.936 8.44786 13.6919 8.69194L9.52528 12.8586C9.2812 13.1027 8.88547 13.1027 8.64139 12.8586L6.97472 11.1919C6.73065 10.9479 6.73065 10.5521 6.97472 10.3081C7.2188 10.064 7.61453 10.064 7.85861 10.3081L9.08333 11.5328L10.9457 9.67042L12.8081 7.80806C13.0521 7.56398 13.4479 7.56398 13.6919 7.80806Z" fill="#34C759"/>
</svg>
