<svg width="20" height="20" viewBox="0 0 20 20" fill="none" xmlns="http://www.w3.org/2000/svg">
  <path fill-rule="evenodd" clip-rule="evenodd" d="M10 18.6667C14.6024 18.6667 18.3333 14.9357 18.3333 10.3333C18.3333 5.73096 14.6024 2 10 2C5.39762 2 1.66666 5.73096 1.66666 10.3333C1.66666 14.9357 5.39762 18.6667 10 18.6667ZM7.19527 7.52862C6.95119 7.28454 6.55546 7.28454 6.31138 7.52862C6.0673 7.7727 6.0673 8.16842 6.31138 8.4125L9.23237 11.3335L6.31138 14.2545C6.0673 14.4985 6.0673 14.8943 6.31138 15.1383C6.55546 15.3824 6.95119 15.3824 7.19527 15.1383L10.1163 12.2173L13.0373 15.1383C13.2814 15.3824 13.6771 15.3824 13.9212 15.1383C14.1652 14.8943 14.1652 14.4985 13.9212 14.2545L10.9002 11.3335L13.8212 8.4125C14.0652 8.16842 14.0652 7.7727 13.8212 7.52862C13.5771 7.28454 13.1814 7.28454 12.9373 7.52862L10.0163 10.4496L7.19527 7.52862Z" fill="#FF3B30"/>
</svg>

