<svg width="20" height="20" viewBox="0 0 20 20" fill="none" xmlns="http://www.w3.org/2000/svg">
  <path fill-rule="evenodd" clip-rule="evenodd" d="M10 2C5.58172 2 2 5.58172 2 10C2 14.4183 5.58172 18 10 18C14.4183 18 18 14.4183 18 10C18 5.58172 14.4183 2 10 2ZM10.6667 5.33333C10.6667 4.96514 10.3682 4.66667 10 4.66667C9.63181 4.66667 9.33333 4.96514 9.33333 5.33333V10C9.33333 10.2089 9.43762 10.4041 9.61438 10.5209L12.281 12.5209C12.5863 12.7316 13.0049 12.6525 13.2157 12.3471C13.4264 12.0418 13.3473 11.6232 13.0419 11.4124L10.6667 9.63333V5.33333Z" fill="#FFCC00"/>
</svg>

